# xmcd
#
# Track frame offsets:
#	150
#	15618
#	42294
#	55799
#	60651
#	72656
#	76703
#	94322
#	109867
#	123865
#	135764
#	152425
#	159846
#	175735
#	227025
#	242866
#
# Disc length: 3609 seconds
#
# Revision: 1
# Processed by: cddbd v1.5.2PL0 Copyright (c) Steve Scherf et al.
# Submitted via: audiograbber 1.83.01
#
DISCID=bf0e1710
DTITLE=Kinky Friedman - Kinky Friedman's Bi-Polar Tour - Live From Woodstoc
DYEAR=2012
DGENRE=Country
TTITLE0=We Reserve The Right To Refuse Service To You
TTITLE1=Nashville Casualty and Life
TTITLE2=Autograph
TTITLE3=Waitret Intro
TTITLE4=Waitret, Please, Waitret
TTITLE5=Biscuits And Buns Intro
TTITLE6=Get Your Biscuits In The Oven And Your Bunss In The Bed
TTITLE7=Yom Kippur Clipper
TTITLE8=Wild Man From Borneo
TTITLE9=Rapid City, South Dakota
TTITLE10=The Ballad Of Charles Whitman
TTITLE11=Kevin Barry Intro
TTITLE12=The Ballad Of Kevin Barry
TTITLE13=Tom Friedman The Navigator
TTITLE14=Sold American
TTITLE15=They Ain't Making Jews Like Jesus Anymore
EXTD=
EXTT0=
EXTT1=
EXTT2=
EXTT3=
EXTT4=
EXTT5=
EXTT6=
EXTT7=
EXTT8=
EXTT9=
EXTT10=
EXTT11=
EXTT12=
EXTT13=
EXTT14=
EXTT15=
PLAYORDER=
